<svg xmlns="http://www.w3.org/2000/svg" viewBox="0 0 48 67.21"><defs><style>.cls-1{fill:#4e8cee;}.cls-2{fill:#a6c5f6;}.cls-3{fill:#fff;}</style></defs><title>资源 11</title><g id="图层_2" data-name="图层 2"><g id="图层_1-2" data-name="图层 1"><path class="cls-1" d="M15.22,12.31A5.66,5.66,0,0,1,21.16,7h6.63a5.66,5.66,0,0,1,5.94,5.32v13h7.74v-13C41.46,5.51,35.33,0,27.78,0H21.16C13.57,0,7.44,5.51,7.44,12.31v6h7.78Zm0,0"/><path class="cls-2" d="M0,29V48.53C0,58.86,9.32,67.21,20.79,67.21h6.41C38.7,67.21,48,58.86,48,48.53V29Zm0,0"/><path class="cls-1" d="M27.48,46.4V58a2.59,2.59,0,0,1-5.17,0V46.4a6.6,6.6,0,0,1-4.17-6.09,6.77,6.77,0,0,1,13.53,0A6.58,6.58,0,0,1,27.4,46.4Zm0,0"/><path class="cls-3" d="M24.9,61.63A3.63,3.63,0,0,1,21.24,58V47a7.61,7.61,0,0,1-4.15-6.71,7.84,7.84,0,0,1,15.67,0,7.59,7.59,0,0,1-4.27,6.77V58a3.63,3.63,0,0,1-3.59,3.59Zm0-26.86a5.62,5.62,0,0,0-5.66,5.53,5.51,5.51,0,0,0,3.5,5.11l.66.28V58a1.52,1.52,0,0,0,3,0V45.69l.68-.28a5.53,5.53,0,0,0,3.5-5.11,5.62,5.62,0,0,0-5.73-5.53Zm0,0"/></g></g></svg>