<svg xmlns="http://www.w3.org/2000/svg" xmlns:xlink="http://www.w3.org/1999/xlink" viewBox="0 0 132.65 136.69"><defs><style>.cls-1{fill:url(#未命名的渐变_13);}.cls-2{fill:#2b68c1;stroke:#2b68c1;stroke-miterlimit:10;stroke-width:2px;}</style><linearGradient id="未命名的渐变_13" x1="65.53" y1="131.77" x2="65.53" y2="73.87" gradientUnits="userSpaceOnUse"><stop offset="0" stop-color="#2b68c1"/><stop offset="1" stop-color="#2bcec1"/></linearGradient></defs><title>资源 6</title><g id="图层_2" data-name="图层 2"><g id="图层_1-2" data-name="图层 1"><path class="cls-1" d="M121.74,103.82c-1.68-1.29-10.33-5.89-16.73-8.64-.11-.06-.17-.06-.28-.11L84.81,84a4.09,4.09,0,0,1-.9-.79,3.21,3.21,0,0,1-.73-1.12c-.17-.39-.67-1.68-1.12-3.14L82,78.85a16.45,16.45,0,0,1-.79-5H49a7.07,7.07,0,0,1-.17,1.72c-.17.56-.73,2.75-1,4.1-.17.67-.34,1.29-.45,1.74a3.37,3.37,0,0,1-2,2.69L18.69,96.92a2.71,2.71,0,0,1-.9.67,19.89,19.89,0,0,0-7.35,5.22C3.76,112.69,2.75,118,2.7,120A118.85,118.85,0,0,0,22,125.94h.06c8.53,2.19,25,5.84,39.12,5.84,1.12,0,2.25,0,3.26-.06-.17-.17-.11-.17-.06-.17h.17c1.46.06,3,.11,4.6.11,2.81,0,5.84-.11,9-.34h.06c26.88-1.46,46.36-8.76,50.06-10.21C128.92,118,123.7,106.07,121.74,103.82Z"/><path class="cls-2" d="M69.93,135.69c-1.55,0-3.1-.05-4.55-.11-1.07.05-2.14.05-3.21.05-14.08,0-30.19-3.59-38.59-5.73a115.31,115.31,0,0,1-20.77-6.53A2.54,2.54,0,0,1,1.42,122c-.48-1.07-2.25-7.28,8-22.37,0-.05.05-.05.05-.11a22.9,22.9,0,0,1,8.24-6.26,3.14,3.14,0,0,1,.8-.59L44,80.46a8.56,8.56,0,0,0,.27-1.12c.21-1,.48-2,.7-2.84,0-.05.05-.16.05-.21A42.27,42.27,0,0,1,39.64,65.1a9,9,0,0,1-3-5.78c-1-3.48-1.71-8,0-10.33a3.58,3.58,0,0,1,1.07-1c-3.05-15.57-1.18-21.78-.75-23C41,12.7,54,6.65,55.16,6.17a118.51,118.51,0,0,1,12.58-5,2.6,2.6,0,0,1,2.41.37,2.64,2.64,0,0,1,1.12,2.19c0,1,1.82,2.78,3.1,3.59a2.35,2.35,0,0,1,.37.32,31.49,31.49,0,0,0,2.78,1.5c.59.32,1,.54,1.28.7,8.78,2.73,12.9,7.6,13.54,8.46,8.62,9.79,4.55,24.67,3.1,29.06a5.86,5.86,0,0,1,.75,1.12q1.77,3.45-.32,9.47c-.27,1.12-1.44,6-3.8,8.78a45.58,45.58,0,0,1-5.25,9.79,11.73,11.73,0,0,0,.48,1.82l.05.11c.27.8.54,1.61.75,2.09l18.25,10.17c6.15,2.68,15.09,7.39,17.13,9s8.51,14.56,8.14,20.71a5.08,5.08,0,0,1-2.25,4.34L129,125c-.86.37-20.82,8.83-50.15,10.44-3.1.16-6.15.27-8.94.27m-4.5-5.46h.16c1.39.05,2.84.11,4.39.11,2.68,0,5.57-.11,8.62-.32h.05a160.21,160.21,0,0,0,47.74-9.74c.59-3-4.39-14.34-6.26-16.48-1.61-1.23-9.85-5.62-15.95-8.24-.11-.05-.16-.05-.27-.11l-19-10.54a3.91,3.91,0,0,1-.86-.75,3.06,3.06,0,0,1-.7-1.07c-.16-.37-.64-1.61-1.07-3L82.24,80a11.55,11.55,0,0,1-.75-4.44A2.56,2.56,0,0,1,82,74a38.36,38.36,0,0,0,5.24-9.63,1.93,1.93,0,0,1,.64-1c1.23-1.23,2.41-4.71,2.84-6.74a.76.76,0,0,1,.11-.32,16.44,16.44,0,0,0,.86-3.43,2.64,2.64,0,0,1-2.25-2.78,3.05,3.05,0,0,1,.05-.7c0-.16.05-.37.05-.54l.27-1.07v-.05l.16-.75c.05-.11.05-.21.11-.32s6.1-16-1.77-24.83a.74.74,0,0,1-.16-.21c0-.05-3.37-4.34-11.19-6.69a3.25,3.25,0,0,1-.75-.37c-.16-.11-.7-.37-1.07-.59a18.08,18.08,0,0,1-3.75-2.19A14.22,14.22,0,0,1,67,7.3c-2.46.91-6.26,2.36-9.37,3.85-.05,0-.05.05-.11.05s-12,5.35-15.31,15.73a.32.32,0,0,0-.05.21c-.16.43-1.87,6.26,1.28,21.51a1.33,1.33,0,0,1,.05.43l.05,1.5a2.58,2.58,0,0,1-1.23,2.35,2.35,2.35,0,0,1-1.18.37A23,23,0,0,0,42,58.14a.68.68,0,0,1,.05.32,3.89,3.89,0,0,0,1.23,2.73,2.68,2.68,0,0,1,1.39,1.66,36.5,36.5,0,0,0,5.62,11.51,2.66,2.66,0,0,1,.32,2.52c-.16.53-.7,2.62-1,3.91-.16.64-.32,1.23-.43,1.66A3.21,3.21,0,0,1,47.34,85L21.87,97.21a2.58,2.58,0,0,1-.86.64,19,19,0,0,0-7,5c-6.37,9.42-7.33,14.45-7.39,16.43A113.32,113.32,0,0,0,25,124.88h.05c8.14,2.09,23.82,5.57,37.3,5.57,1.07,0,2.14,0,3.1-.05-.16-.16-.11-.16-.05-.16M47.93,78.48"/></g></g></svg>