<svg xmlns="http://www.w3.org/2000/svg" xmlns:xlink="http://www.w3.org/1999/xlink" viewBox="0 0 132.08 132.24"><defs><style>.cls-1,.cls-5{fill:#2b68c1;}.cls-2{fill:#fff;}.cls-3{fill:none;}.cls-4{fill:url(#未命名的渐变_13);}.cls-5{stroke:#2b68c1;stroke-miterlimit:10;stroke-width:5px;}</style><linearGradient id="未命名的渐变_13" x1="415.48" y1="-1268.45" x2="415.48" y2="-1316.1" gradientTransform="translate(157.84 1403.4) rotate(-22.41)" gradientUnits="userSpaceOnUse"><stop offset="0" stop-color="#2b68c1"/><stop offset="1" stop-color="#2bcec1"/></linearGradient></defs><title>资源 5</title><g id="图层_2" data-name="图层 2"><g id="图层_1-2" data-name="图层 1"><path class="cls-1" d="M131.94,12.76A12.64,12.64,0,0,0,119.3.12H12.64A12.64,12.64,0,0,0,0,12.76V119.42a12.64,12.64,0,0,0,12.64,12.63H119.3a12.64,12.64,0,0,0,12.64-12.63ZM12.79,10.36h106.7a2.11,2.11,0,0,1,2.22,2.21V72.65H90.78a5,5,0,0,0-5.12,5,20.24,20.24,0,0,1-40.47.77,4.05,4.05,0,0,0,.06-.76,5.06,5.06,0,0,0-5.12-5H10.24V12.57a2.38,2.38,0,0,1,2.55-2.21Z"/><path class="cls-2" d="M119.49,121.83H12.79c-1.31,0-2.55-1.59-2.55-3.26V72.24H121.71v46.33c0,1.67-.91,3.26-2.22,3.26Z"/><path class="cls-1" d="M119.49,121.83"/><rect class="cls-3" x="0.02" width="132.06" height="132.24"/><path class="cls-4" d="M27.28,59.5a23.82,23.82,0,1,0,3.06-23.63A23.83,23.83,0,0,0,27.28,59.5Zm0,0"/><path class="cls-5" d="M59.29,74.64a26.14,26.14,0,1,1-20-48.3l.09,0a26.14,26.14,0,0,1,20,48.3ZM41.12,30.59l-.08,0A21.51,21.51,0,1,0,57.52,70.36l.09,0A21.51,21.51,0,0,0,41.14,30.58Zm0,0"/><path class="cls-5" d="M77.94,79.11a3.34,3.34,0,0,1,3.46.56l29.09,25.11a3.34,3.34,0,1,1-4.36,5.05L77,84.73a3.34,3.34,0,0,1,.91-5.61Zm0,0"/></g></g></svg>