<svg xmlns="http://www.w3.org/2000/svg" xmlns:xlink="http://www.w3.org/1999/xlink" viewBox="0 0 132.08 132.24"><defs><style>.cls-1{fill:#2b68c1;}.cls-2{fill:url(#未命名的渐变_13);}.cls-3{fill:none;}</style><linearGradient id="未命名的渐变_13" x1="65.98" y1="121.83" x2="65.98" y2="82.89" gradientUnits="userSpaceOnUse"><stop offset="0" stop-color="#2b68c1"/><stop offset="1" stop-color="#2bcec1"/></linearGradient></defs><title>资源 4</title><g id="图层_2" data-name="图层 2"><g id="图层_1-2" data-name="图层 1"><path class="cls-1" d="M131.94,12.76A12.64,12.64,0,0,0,119.3.12H12.64A12.64,12.64,0,0,0,0,12.76V119.42a12.64,12.64,0,0,0,12.64,12.63H119.3a12.64,12.64,0,0,0,12.64-12.63ZM12.79,10.36h106.7a2.11,2.11,0,0,1,2.22,2.21V72.65H90.78a5,5,0,0,0-5.12,5,20.24,20.24,0,0,1-40.47.77,4.05,4.05,0,0,0,.06-.76,5.06,5.06,0,0,0-5.12-5H10.24V12.57a2.38,2.38,0,0,1,2.55-2.21Z"/><path class="cls-2" d="M119.49,121.83H12.79a2.69,2.69,0,0,1-2.55-2.56V82.89h25.1a30.51,30.51,0,0,0,60.14,0h26.23v36.38a2.42,2.42,0,0,1-2.22,2.56Z"/><path class="cls-1" d="M119.49,121.83"/><rect class="cls-3" x="0.02" width="132.06" height="132.24"/><path class="cls-1" d="M37,34.17H95a5.12,5.12,0,1,0,0-10.24H37a5.12,5.12,0,0,0,0,10.24Zm0,23.59H95a5.12,5.12,0,1,0,0-10.24H37a5.12,5.12,0,0,0,0,10.24Zm0,0"/></g></g></svg>