<svg xmlns="http://www.w3.org/2000/svg" xmlns:xlink="http://www.w3.org/1999/xlink" viewBox="0 0 47.99 53.55"><defs><style>.cls-1{fill:none;}.cls-2{clip-path:url(#clip-path);}.cls-3{fill:#ffc670;}.cls-4{fill:#ffe88a;}.cls-5{fill:#ff9a42;}.cls-6{fill:#96ddff;}.cls-7{fill:#69baf9;}.cls-8{fill:#3d3d63;}</style><clipPath id="clip-path" transform="translate(0 -0.06)"><rect class="cls-1" width="48" height="53.7"/></clipPath></defs><title>资源 10</title><g id="图层_2" data-name="图层 2"><g id="图层_1-2" data-name="图层 1"><g class="cls-2"><path class="cls-3" d="M31.53,15a16.26,16.26,0,0,0-18-7.66L12.76,6a4.53,4.53,0,1,0-7.84,4.53l.78,1.34A16.29,16.29,0,0,0,3.3,31.24L14.77,51.08,43,34.8Zm0,0" transform="translate(0 -0.06)"/><path class="cls-4" d="M45.59,30.19a1.81,1.81,0,0,0-2.71-1.57L26.71,37.93l-7,4a6,6,0,0,1-8.15-2.18L7,31.75a18,18,0,0,1,.2-18.54A14.79,14.79,0,0,1,15,7,16.21,16.21,0,0,0,7.3,10.39,16.68,16.68,0,0,0,3.7,31.7l8.47,14.68-1.54.83a2.82,2.82,0,0,0-1.2,3.6A2.7,2.7,0,0,0,13.18,52l1.57-.9,1.72-1L42.83,34.89a6,6,0,0,0,2.76-4.7Zm0,0" transform="translate(0 -0.06)"/></g><path class="cls-5" d="M42.83,28.61,40.27,30.1,31.53,15A16.28,16.28,0,0,0,9.29,9c-.44.25-.86.53-1.27.82A16.29,16.29,0,0,1,27,17.2l4.9,8.49A8,8,0,0,1,29,36.62l-8.57,5-5,2.88-4.77,2.72a2.82,2.82,0,0,0-1.2,3.6A2.7,2.7,0,0,0,13.18,52l1.57-.9L21.84,47a8.15,8.15,0,0,0,14-8.1l7.08-4.09a5.69,5.69,0,0,0,2.64-4.42v-.18a1.81,1.81,0,0,0-2.76-1.61Zm0,0" transform="translate(0 -0.06)"/><path class="cls-3" d="M26.79,39.88a4.9,4.9,0,1,0,4.9-4.9,4.9,4.9,0,0,0-4.9,4.9Zm0,0" transform="translate(0 -0.06)"/><path class="cls-5" d="M26.71,37.93,41.84,29.2a2.72,2.72,0,0,1,2.71,4.71L13.18,52a2.71,2.71,0,1,1-2.71-4.69l4.86-2.81" transform="translate(0 -0.06)"/><path class="cls-6" d="M25.69,1.26A1.73,1.73,0,0,0,24,3V18.4a.86.86,0,0,0,1.48.61l4-4h15.6a1.74,1.74,0,0,0,1.7-1.78V3A1.73,1.73,0,0,0,45,1.26Zm0,0" transform="translate(0 -0.06)"/><g class="cls-2"><path class="cls-7" d="M25.42,19l4-4H45a1.74,1.74,0,0,0,1.74-1.74V3A1.73,1.73,0,0,0,45,1.26h-.9c0,3.43-.22,9-1.86,9H26.68A3.6,3.6,0,0,0,24,13.72V18.4a.86.86,0,0,0,1.44.58Zm0,0" transform="translate(0 -0.06)"/><path class="cls-8" d="M45.09.06H25.69A2.94,2.94,0,0,0,22.78,3V6.46a17.27,17.27,0,0,0-8.62-.53l-.34-.58a5.73,5.73,0,0,0-9.91,5.73l.35.6A17.49,17.49,0,0,0,2.33,31.84L10.43,46l-.53.3a3.91,3.91,0,1,0,3.91,6.78l7.77-4.55a9.34,9.34,0,0,0,15.78-9.11l7.78-4.5a3.91,3.91,0,0,0-3.91-6.77l-.53.3-7.12-12.3H45.06A2.94,2.94,0,0,0,48,13.23V3A2.94,2.94,0,0,0,45.09.06ZM7.18,5.34a3.32,3.32,0,0,1,4.54,1.2,18.65,18.65,0,0,0-3,1.37A17.9,17.9,0,0,0,6,9.9a3.31,3.31,0,0,1,1.2-4.56ZM31.93,48.21a6.9,6.9,0,0,1-8.19-.91l11.49-6.64a6.89,6.89,0,0,1-3.3,7.55Zm6.7-18.56-12.52,7.2a1.2,1.2,0,1,0,1.2,2.08L42.44,30.2A1.51,1.51,0,1,1,44,32.8L12.62,51a1.52,1.52,0,0,1-1.51-2.63L16,45.51a1.2,1.2,0,1,0-1.2-2.08l-2.26,1.37L4.37,30.64A15.1,15.1,0,0,1,9.89,10,14.91,14.91,0,0,1,22.78,9V18.4A2.05,2.05,0,0,0,24,20.27a2,2,0,0,0,2.26-.44L30,16.15h.9Zm7-16.43a.54.54,0,0,1-.54.53H29.45a1.2,1.2,0,0,0-.85.36l-3.41,3.45V3a.54.54,0,0,1,.54-.53H45.09a.54.54,0,0,1,.54.53Zm0,0" transform="translate(0 -0.06)"/></g><path class="cls-8" d="M29.58,7.16h3.6a1.2,1.2,0,0,0,0-2.4h-3.6a1.2,1.2,0,0,0,0,2.4ZM39.9,9H29.58a1.2,1.2,0,0,0,0,2.4H39.9a1.2,1.2,0,0,0,0-2.4ZM19.75,40.57l-1,.6a1.2,1.2,0,1,0,1.2,2.08l1-.6a1.2,1.2,0,0,0-1.2-2.08Zm0,0" transform="translate(0 -0.06)"/></g></g></svg>