<svg xmlns="http://www.w3.org/2000/svg" viewBox="0 0 48 48.04"><defs><style>.cls-1{fill:#0af;}.cls-2{fill:#fc592d;}.cls-3{fill:#ffce00;}</style></defs><title>资源 12</title><g id="图层_2" data-name="图层 2"><g id="图层_1-2" data-name="图层 1"><path class="cls-1" d="M44,48H4a4,4,0,0,1-4-4V19.49a4,4,0,0,1,4-4H44a4,4,0,0,1,4,4V44a4,4,0,0,1-4,4Zm0,0"/><path class="cls-2" d="M39.49,7.78H8.4A3.36,3.36,0,0,0,5,11.14v2.62h37.8V11.14a3.36,3.36,0,0,0-3.36-3.36Zm0,0"/><path class="cls-3" d="M35.9,0H12.21A3.36,3.36,0,0,0,8.85,3.36V6H39.26V3.36A3.36,3.36,0,0,0,35.9,0Zm0,0"/></g></g></svg>