<svg xmlns="http://www.w3.org/2000/svg" viewBox="0 0 246 246"><defs><style>.cls-1{fill:#3da0e2;}.cls-2{fill:#fff;}.cls-3{fill:#f15a24;}</style></defs><title>资源 1</title><g id="图层_2" data-name="图层 2"><g id="图层_1-2" data-name="图层 1"><rect class="cls-1" x="16.03" y="47.17" width="185.76" height="186.95" rx="27.65" ry="27.65"/><ellipse class="cls-2" cx="108.91" cy="133.15" rx="40.73" ry="40.99"/><path class="cls-1" d="M96.75,139.59l-2.07,12.65a2.47,2.47,0,0,0,1,2.41,2.44,2.44,0,0,0,2.59.15l10.62-5.88,10.63,6a2.58,2.58,0,0,0,1.14.28h0a2.45,2.45,0,0,0,2-1,2.48,2.48,0,0,0,.34-2.22l-2-12.27,8.68-8.94a2.47,2.47,0,0,0-1.37-4.15l-11.88-1.84-5.32-11.46a2.45,2.45,0,0,0-4.44,0l-5.36,11.43-11.9,1.8a2.47,2.47,0,0,0-1.39,4.15Zm0,0"/><rect class="cls-2" x="72.66" y="189.13" width="72.52" height="15" rx="7.47" ry="7.47"/><path class="cls-3" d="M173.75,234.34s57.19,23.37,55.27-23S134.86,42.09,52.24,17,16.19,84.47,16.19,84.47l-.46.16S-41-16.89,60.88,2.45,259.76,163,244.39,216.13s-71.1,19.34-71.1,18.37S173.75,234.34,173.75,234.34Z"/></g></g></svg>